<svg width="260.000000" height="24.026367" viewBox="0 0 260 24.0264" fill="none" xmlns="http://www.w3.org/2000/svg" xmlns:xlink="http://www.w3.org/1999/xlink">
	<desc>
			Created with Pixso.
	</desc>
	<defs/>
	<rect id="Компоненты 4" width="260.000000" height="23.026367" fill="#FFFFFF" fill-opacity="0"/>
	<path id="ARTIMA" d="M2.25 19L3.75 16.25L13.25 16.25L14.75 19L16.5 19L9.5 7L7.5 7L0.5 19L2.25 19ZM30.75 19L32.25 19L32.25 16.75Q32.25 16.09 32.18 15.57Q32.11 15.06 31.91 14.68Q31.84 14.55 31.74 14.43Q31.57 14.22 31.33 14.07Q30.96 13.84 30.33 13.75Q30.96 13.65 31.37 13.41Q31.6 13.28 31.79 13.09Q31.93 12.95 32.03 12.78Q32.28 12.38 32.39 11.81Q32.5 11.25 32.5 10.5Q32.5 9.91 32.47 9.42Q32.44 8.94 32.29 8.55Q32.24 8.44 32.18 8.33Q32.04 8.08 31.8 7.87Q31.47 7.58 30.86 7.39Q30.25 7.19 29.3 7.09Q28.36 7 26.99 7L18.5 7L18.5 19L20 19L20 14.25L26.74 14.25Q27.74 14.25 28.42 14.28Q29.1 14.32 29.55 14.41Q30 14.5 30.24 14.67Q30.34 14.75 30.42 14.84Q30.53 14.97 30.59 15.13Q30.71 15.41 30.73 15.8Q30.75 16.2 30.75 16.75L30.75 19ZM48 8.25L48 7L34.5 7L34.5 8.25L40.5 8.25L40.5 19L42 19L42 8.25L48 8.25ZM52 7L50.5 7L50.5 19L52 19L52 7ZM56.5 19L56.5 8L63.73 19L65.25 19L72.37 8.16L72.37 19L73.87 19L73.87 7L71.48 7L64.49 17.5L57.5 7L55 7L55 19L56.5 19ZM77.62 19L79.12 16.25L88.62 16.25L90.12 19L91.87 19L84.87 7L82.87 7L75.87 19L77.62 19ZM8.5 8L12.5 15L4.5 15L8.5 8ZM83.87 8L87.87 15L79.87 15L83.87 8ZM26.99 13L20 13L20 8.25L26.99 8.25Q27.99 8.25 28.67 8.27Q29.35 8.29 29.8 8.37Q30.25 8.46 30.49 8.6Q30.63 8.69 30.73 8.82Q30.8 8.9 30.84 9Q30.96 9.25 30.98 9.62Q31 9.99 31 10.5Q31 11.04 30.98 11.44Q30.96 11.83 30.84 12.11Q30.78 12.27 30.67 12.4Q30.59 12.49 30.49 12.57Q30.25 12.74 29.8 12.83Q29.35 12.92 28.67 12.96Q27.99 13 26.99 13Z" fill="#FFFFFF" fill-opacity="1.000000" fill-rule="evenodd"/>
	<path id="Нижний Новгород" d="M177.21 8.6Q177.82 7.98 177.92 6.87L176.6 6.87Q176.51 7.7 176.09 8.01Q175.67 8.32 174.93 8.32Q174.1 8.32 173.72 8.03Q173.35 7.73 173.27 6.87L171.96 6.87Q172.03 8.08 172.68 8.69Q173.33 9.3 174.9 9.3Q176.42 9.3 177.12 8.68Q177.16 8.64 177.21 8.6ZM123.84 19L125.28 19L125.28 7.57L123.84 7.57L123.84 12.4L117.99 12.4L117.99 7.57L116.55 7.57L116.55 19L117.99 19L117.99 13.67L123.84 13.67L123.84 19ZM192.26 19L193.7 19L193.7 7.57L192.26 7.57L192.26 12.4L186.4 12.4L186.4 7.57L184.96 7.57L184.96 19L186.4 19L186.4 13.67L192.26 13.67L192.26 19ZM203.05 17.93Q204.08 16.77 204.08 14.69Q204.08 13.27 203.58 12.28Q203.21 11.58 202.65 11.11Q202.43 10.93 202.18 10.78Q202.13 10.75 202.08 10.72Q201.23 10.26 200.13 10.26Q198.77 10.26 197.83 10.88Q197.5 11.11 197.21 11.41Q197.2 11.42 197.19 11.43Q196.14 12.58 196.14 14.69Q196.14 16.12 196.65 17.12Q197.05 17.89 197.68 18.38Q197.85 18.52 198.05 18.64Q198.19 18.72 198.33 18.78Q199.12 19.16 200.08 19.16Q201.41 19.16 202.34 18.55Q202.7 18.31 203 17.99Q203.02 17.96 203.05 17.93ZM228.71 17.93Q229.74 16.77 229.74 14.69Q229.74 13.27 229.24 12.28Q228.88 11.58 228.32 11.11Q228.1 10.93 227.85 10.78Q227.79 10.75 227.74 10.72Q226.89 10.26 225.79 10.26Q224.44 10.26 223.5 10.88Q223.16 11.11 222.88 11.41Q222.87 11.42 222.86 11.43Q221.81 12.58 221.81 14.69Q221.81 16.12 222.32 17.12Q222.72 17.89 223.34 18.38Q223.52 18.52 223.72 18.64Q223.85 18.72 224 18.78Q224.78 19.16 225.74 19.16Q227.07 19.16 228 18.55Q228.36 18.31 228.66 17.99Q228.69 17.96 228.71 17.93ZM237.74 10.67Q237.01 10.26 236.05 10.26Q235.01 10.26 234.38 10.64Q233.83 10.98 233.46 11.47Q233.42 11.53 233.38 11.59L233.31 11.59L233.12 10.42L231.97 10.42L231.97 22.83L233.38 22.83L233.38 19.32Q233.38 19.01 233.34 18.6Q233.31 18.18 233.28 17.91L233.38 17.91Q233.74 18.4 234.39 18.78Q235.04 19.16 236.03 19.16Q236.98 19.16 237.71 18.75Q238.21 18.48 238.6 18.02Q239.57 16.88 239.57 14.69Q239.57 12.47 238.6 11.37Q238.22 10.93 237.74 10.67ZM248.23 17.93Q249.26 16.77 249.26 14.69Q249.26 13.27 248.76 12.28Q248.4 11.58 247.84 11.11Q247.62 10.93 247.37 10.78Q247.31 10.75 247.26 10.72Q246.41 10.26 245.31 10.26Q243.96 10.26 243.02 10.88Q242.68 11.11 242.4 11.41Q242.39 11.42 242.38 11.43Q241.33 12.58 241.33 14.69Q241.33 16.12 241.84 17.12Q242.24 17.89 242.86 18.38Q243.04 18.52 243.24 18.64Q243.37 18.72 243.52 18.78Q244.3 19.16 245.26 19.16Q246.59 19.16 247.52 18.55Q247.88 18.31 248.18 17.99Q248.21 17.96 248.23 17.93ZM129.52 16.23Q129.54 15.84 129.54 15.65L129.54 10.42L128.21 10.42L128.21 19L129.96 19L134.52 11.83Q134.5 12.03 134.48 12.44Q134.47 12.85 134.46 13.27Q134.45 13.68 134.45 13.94L134.45 19L135.76 19L135.76 10.42L134.03 10.42L129.45 17.6Q129.46 17.38 129.48 17Q129.51 16.61 129.52 16.23ZM145.25 14.58L148.79 10.42L147.27 10.42L143.78 14.58L143.78 10.42L142.47 10.42L142.47 14.58L138.99 10.42L137.46 10.42L140.99 14.58L137.16 19L138.76 19L142.47 14.64L142.47 19L143.78 19L143.78 14.64L147.49 19L149.09 19L145.25 14.58ZM151.91 13.99L151.91 10.42L150.5 10.42L150.5 19L151.91 19L151.91 15.17L156.57 15.17L156.57 19L157.97 19L157.97 10.42L156.57 10.42L156.57 13.99L151.91 13.99ZM162 16.23Q162.02 15.84 162.02 15.65L162.02 10.42L160.69 10.42L160.69 19L162.44 19L167 11.83Q166.98 12.03 166.96 12.44Q166.95 12.85 166.94 13.27Q166.93 13.68 166.93 13.94L166.93 19L168.24 19L168.24 10.42L166.52 10.42L161.92 17.6Q161.94 17.38 161.96 17Q161.99 16.61 162 16.23ZM172.29 16.23Q172.31 15.84 172.31 15.65L172.31 10.42L170.98 10.42L170.98 19L172.72 19L177.28 11.83Q177.27 12.03 177.25 12.44Q177.24 12.85 177.23 13.27Q177.22 13.68 177.22 13.94L177.22 19L178.53 19L178.53 10.42L176.8 10.42L172.21 17.6Q172.23 17.38 172.25 17Q172.28 16.61 172.29 16.23ZM212.9 13.62Q213.2 13.21 213.2 12.58Q213.2 11.82 212.83 11.35Q212.8 11.32 212.78 11.29L212.77 11.29Q212.34 10.82 211.62 10.62Q210.9 10.42 209.98 10.42L206.3 10.42L206.3 19L210 19Q211.85 19 212.66 18.28Q213.06 17.93 213.26 17.49Q213.47 17.04 213.47 16.48Q213.47 15.72 213.09 15.27Q213 15.16 212.88 15.07Q212.76 14.98 212.63 14.9Q212.13 14.59 211.49 14.5L211.49 14.44Q212.24 14.28 212.72 13.83Q212.82 13.73 212.9 13.62ZM220.75 11.6L220.75 10.42L215.52 10.42L215.52 19L216.93 19L216.93 11.6L220.75 11.6ZM257.85 17.81L257.85 10.42L253.34 10.42Q253.34 10.84 253.31 11.26Q253.21 12.82 252.78 14.35Q252.23 16.29 251.12 17.81L250.43 17.81L250.43 21.97L251.78 21.97L251.78 19L257.74 19L257.74 21.97L259.1 21.97L259.1 17.81L257.85 17.81ZM198.2 17.1Q197.6 16.21 197.6 14.69Q197.6 13.17 198.19 12.31Q198.34 12.09 198.53 11.93Q199.11 11.44 200.1 11.44Q201.07 11.44 201.66 11.92Q201.86 12.09 202.01 12.31Q202.62 13.17 202.62 14.69Q202.62 16.21 202.01 17.1Q201.84 17.36 201.6 17.54Q201.03 17.99 200.11 17.99Q199.16 17.99 198.59 17.52Q198.36 17.35 198.2 17.1ZM223.86 17.1Q223.26 16.21 223.26 14.69Q223.26 13.17 223.85 12.31Q224 12.09 224.2 11.93Q224.78 11.44 225.76 11.44Q226.74 11.44 227.32 11.92Q227.52 12.09 227.68 12.31Q228.29 13.17 228.29 14.69Q228.29 16.21 227.68 17.1Q227.5 17.36 227.27 17.54Q226.69 17.99 225.78 17.99Q224.83 17.99 224.25 17.52Q224.03 17.35 223.86 17.1ZM234.07 12.03Q234.63 11.44 235.79 11.44Q236.54 11.44 237.04 11.8Q237.33 12 237.54 12.32Q238.11 13.2 238.11 14.67Q238.11 15.64 237.86 16.38Q237.62 17.12 237.11 17.56Q237.03 17.63 236.94 17.69Q236.48 17.99 235.82 17.99Q234.67 17.99 234.11 17.41Q233.99 17.28 233.9 17.13Q233.38 16.28 233.38 14.69L233.38 14.42Q233.41 12.92 233.94 12.18Q234 12.1 234.07 12.03ZM243.38 17.1Q242.78 16.21 242.78 14.69Q242.78 13.17 243.37 12.31Q243.52 12.09 243.72 11.93Q244.3 11.44 245.28 11.44Q246.26 11.44 246.84 11.92Q247.04 12.09 247.2 12.31Q247.81 13.17 247.81 14.69Q247.81 16.21 247.2 17.1Q247.02 17.36 246.79 17.54Q246.21 17.99 245.3 17.99Q244.35 17.99 243.77 17.52Q243.55 17.35 243.38 17.1ZM254.25 13.77Q254.53 12.61 254.59 11.52L256.49 11.52L256.49 17.81L252.58 17.81Q253.14 17.04 253.56 15.99Q253.98 14.93 254.25 13.77ZM211.58 12.09Q211.78 12.35 211.78 12.76Q211.78 13.04 211.66 13.25Q211.27 13.94 209.65 13.94L207.71 13.94L207.71 11.59L209.9 11.59Q210.9 11.59 211.33 11.87Q211.48 11.96 211.58 12.09ZM211.79 15.72Q212.01 16.02 212.01 16.48Q212.01 16.97 211.78 17.28Q211.65 17.44 211.46 17.55Q210.9 17.86 209.84 17.86L207.71 17.86L207.71 15.11L209.81 15.11Q210.9 15.11 211.46 15.43Q211.66 15.55 211.79 15.72Z" fill="#FFFFFF" fill-opacity="1.000000" fill-rule="evenodd"/>
	<path id="Линия 11" d="M104 23.02L104 4" stroke="#FFFFFF" stroke-opacity="1.000000" stroke-width="2.000000" stroke-linecap="round"/>
</svg>
